{"asset":{"version":"2.0","generator":"Unity 2022.3.52f1c1 glTFast 6.10.1"},"nodes":[{"name":"Main Camera","children":[3],"translation":[0,1,-10]},{"name":"Directional Light","children":[4],"translation":[0,3,0],"rotation":[0.408217877,0.234569684,-0.109381631,0.8754261]},{"name":"1","mesh":0,"translation":[-52.3,0,-42],"rotation":[-0.5,-0.5,-0.5,0.5],"scale":[39.3999977,39.3999977,39.3999977]},{"name":"Main Camera_Orientation","rotation":[0,-1,0,-4.371139E-08],"camera":0},{"name":"Directional Light_Orientation","rotation":[0,-1,0,-4.371139E-08],"extensions":{"KHR_lights_punctual":{"light":0}}}],"extensionsRequired":["KHR_lights_punctual"],"extensionsUsed":["KHR_lights_punctual"],"buffers":[{"uri":"SampleScene.bin","byteLength":13464}],"bufferViews":[{"buffer":0,"byteLength":984,"target":34963},{"buffer":0,"byteLength":12480,"byteOffset":984,"byteStride":48,"target":34962}],"accessors":[{"bufferView":1,"componentType":5126,"count":260,"type":"VEC3","max":[1.62471044,1.550127,0.6216717],"min":[-1.62471044,-1.550127,-0.0112742186]},{"bufferView":1,"componentType":5126,"count":260,"type":"VEC3","byteOffset":12},{"bufferView":1,"componentType":5126,"count":260,"type":"VEC4","byteOffset":24},{"bufferView":1,"componentType":5126,"count":260,"type":"VEC2","byteOffset":40},{"bufferView":0,"componentType":5123,"count":492,"type":"SCALAR"}],"cameras":[{"type":"perspective","perspective":{"yfov":1.04719758,"zfar":1000,"znear":0.3}}],"images":[{"name":"Plane001_VRayDiffuseFilterMap.png","uri":"Plane001_VRayDiffuseFilterMap.png","mimeType":"image/png"}],"materials":[{"name":"Plane001_VRayDiffuseFilterMap","pbrMetallicRoughness":{"metallicFactor":0,"roughnessFactor":0.5,"baseColorTexture":{"index":0}}}],"meshes":[{"name":"Plane001","primitives":[{"attributes":{"POSITION":0,"NORMAL":1,"TANGENT":2,"TEXCOORD_0":3},"indices":4,"material":0}]}],"scene":0,"scenes":[{"name":"SampleScene","nodes":[0,1,2]}],"textures":[{"source":0}],"extensions":{"KHR_lights_punctual":{"lights":[{"type":"directional","name":"Directional Light","color":[1,0.904661357,0.6724432],"intensity":3.14159274}]}}}